<?xml version="1.0" encoding="UTF-8"?>
<!DOCTYPE svg PUBLIC "-//W3C//DTD SVG 1.1//EN" "http://www.w3.org/Graphics/SVG/1.1/DTD/svg11.dtd">
<!-- Creator: CorelDRAW 2019 (64-Bit) -->
<svg xmlns="http://www.w3.org/2000/svg" xml:space="preserve" width="14in" height="16in" version="1.1" style="shape-rendering:geometricPrecision; text-rendering:geometricPrecision; image-rendering:optimizeQuality; fill-rule:evenodd; clip-rule:evenodd"
viewBox="0 0 14000 16000"
 xmlns:xlink="http://www.w3.org/1999/xlink"
 xmlns:xodm="http://www.corel.com/coreldraw/odm/2003">
 <defs>
  <style type="text/css">
   <![CDATA[
    .str0 {stroke:#165A87;stroke-width:3;stroke-miterlimit:2.61313}
    .fil2 {fill:none;fill-rule:nonzero}
    .fil1 {fill:#fff;fill-rule:nonzero}
    .fil0 {fill:#fff;fill-rule:nonzero}
   ]]>
  </style>
 </defs>
 <g id="Layer_x0020_1">
  <metadata id="CorelCorpID_0Corel-Layer"/>
  <g id="_2566102858768">
   <path class="fil0" d="M5011.01 7620.33l518.8 -363.29 472.16 363.29 309.54 0 -776.41 -597.4 -853.18 597.4c32.39,0.08 327.15,4.39 329.1,0z"/>
   <polygon class="fil1" points="7631.78,7152.25 7631.78,6935.18 7440.14,6806.31 7440.14,7012.96 6954.98,6660.45 5988.45,7369.68 6142.64,7490.4 6955.52,6894.14 7942.69,7611.51 8263.83,7611.51 "/>
   <polygon class="fil1" points="4502.88,8151.16 4502.88,7726.94 4582.07,7726.94 4582.07,8088.95 4729.13,8088.95 4729.13,8151.16 "/>
   <polygon class="fil1" points="4783.44,8151.16 4783.44,7726.94 5006.3,7726.94 5006.3,7789.15 4862.63,7789.15 4862.63,7896.07 4994.99,7896.07 4994.99,7958.28 4862.63,7958.28 4862.63,8088.95 5006.3,8088.95 5006.3,8151.16 "/>
   <path class="fil1" d="M5061.17 7905.1c3.39,-108.04 11.88,-188.35 138.58,-188.35 67.87,0.57 114.82,18.1 132.92,91.64 3.95,16.96 3.39,34.5 3.95,51.47l-79.17 0c-1.14,-42.99 -3.96,-76.93 -57.7,-79.19 -62.22,0 -57.14,74.1 -57.14,106.9l0 117.66c0,35.07 2.83,92.19 57.14,92.19 45.24,0 59.95,-48.08 58.26,-111.99l-54.86 0 0 -62.22 131.78 0 0 227.95 -59.39 0 0 -48.65 -1.13 0c-15.85,44.13 -45.83,56.56 -74.67,58.84 -130.1,0 -138.58,-82.59 -138.58,-195.71l0 -60.54z"/>
   <path class="fil1" d="M5498.98 7981.48l67.88 0 -21.5 -120.49c-3.96,-19.79 -5.66,-39.02 -7.92,-58.82 -0.56,-9.62 -1.7,-19.23 -2.82,-28.28l-1.13 0c-1.14,9.05 -2.26,18.66 -2.83,28.28 -2.26,19.8 -3.96,39.03 -7.91,58.82l-23.76 120.49zm-118.21 169.69l101.24 -424.22 106.91 0 96.16 424.22 -84.84 0 -20.93 -107.47 -92.77 0 -20.93 107.47 -84.84 0z"/>
   <path class="fil1" d="M5979.78 8000.14c-0.57,7.91 -1.13,16.41 -1.7,24.33 -3.96,77.48 -29.98,136.88 -118.21,136.88 -130.11,0 -138.57,-82.59 -138.57,-195.71l0 -60.54c3.39,-108.04 11.87,-188.35 138.57,-188.35 70.7,1.12 110.3,37.34 115.95,109.74 1.13,10.75 2.26,21.49 1.7,32.24l-78.05 0c-3.41,-27.15 -0.56,-78.06 -39.6,-78.06 -62.22,0 -57.14,74.1 -57.14,106.9l0 117.66c0,35.07 2.83,92.19 57.14,92.19 43.55,0 38.47,-70.13 40.17,-97.28l79.74 0z"/>
   <path class="fil1" d="M6142.67 7838.37c8.47,20.93 15.26,42.41 18.67,65.04l1.13 0c5.65,-32.81 16.4,-56.56 26.01,-80.31l37.9 -96.15 86.55 0 -111.99 243.78 0 180.44 -79.21 0 0 -180.44 -110.29 -243.78 86.53 0 44.7 111.43z"/>
   <path class="fil0" d="M6577.09 7906.24l62.23 0c26,-1.7 46.37,-18.67 46.37,-61.08 0,-47.52 -19.8,-55.44 -49.76,-56l-58.83 0 0 117.08zm0 62.23l0 182.7 -79.19 0 0 -424.22 149.89 0c68.45,0 120.48,23.75 120.48,101.8 0,46.39 -11.88,95.02 -65.04,102.38l0 1.13c46.93,6.22 61.1,36.2 61.1,76.92 0,17.54 -2.27,121.62 16.96,134.07l0 7.91 -87.1 0c-9.63,-27.16 -7.93,-79.19 -8.5,-107.47 -0.55,-26.02 0,-61.65 -27.12,-69.58 -21.51,-6.21 -44.7,-5.65 -67.34,-5.65l-14.13 0z"/>
   <polygon class="fil0" points="6842.37,8151.16 6842.37,7726.94 7065.22,7726.94 7065.22,7789.15 6921.56,7789.15 6921.56,7896.07 7053.92,7896.07 7053.92,7958.28 6921.56,7958.28 6921.56,8088.95 7065.22,8088.95 7065.22,8151.16 "/>
   <path class="fil0" d="M7221.92 8088.95c16.4,0 33.37,1.69 47.5,-4.54 21.49,-9.6 24.33,-37.33 24.33,-58.82 0,-45.8 -9.06,-65.04 -58.26,-65.04l-30.55 0 0 128.41 16.98 0zm-2.27 -190.63c19.24,0 44.11,1.13 56.57,-14.7 7.34,-10.74 8.48,-25.44 8.48,-45.8 0,-31.69 -6.79,-47.52 -42.99,-48.66l-36.77 0 0 109.17 14.7 0zm-93.89 252.84l0 -424.22 127.84 0c33.93,0 67.3,2.26 89.94,31.1 18.1,23.2 20.92,47.52 20.92,76.35 0,36.78 -7.93,72.98 -50.92,88.81l0 1.13c44.7,6.23 61.66,43.56 61.66,98.42 0,17.54 -1.13,35.08 -5.65,52.05 -16.97,53.74 -47.53,76.35 -104.09,76.35l-139.7 0z"/>
   <path class="fil0" d="M7632.01 7726.94l79.19 0 0 295.81c0,93.89 -30.56,138.59 -134.06,138.59 -104.65,0 -135.2,-44.7 -135.2,-138.59l0 -295.81 79.19 0 0 289.04c0,40.72 2.84,81.44 56.58,81.44 51.46,0 54.3,-40.71 54.3,-81.44l0 -289.04z"/>
   <polygon class="fil0" points="7788.12,8151.16 7867.3,8151.16 7867.3,7726.94 7788.12,7726.94 "/>
   <polygon class="fil0" points="7944.81,8151.16 7944.81,7726.94 8023.98,7726.94 8023.98,8088.95 8171.06,8088.95 8171.06,8151.16 "/>
   <path class="fil0" d="M8343.57 8088.95c70.7,0 75.24,-37.35 75.24,-160.09 0,-100.12 -10.18,-139.71 -57.69,-139.71l-52.05 0 0 299.8 34.5 0zm-113.68 62.21l0 -424.22 165.16 0c19.23,0 57.71,8.48 82.03,48.07 18.1,29.42 23.17,76.35 23.17,146.49 0,83.72 0,180.44 -65.04,218.33 -17.53,10.19 -39.04,11.32 -58.83,11.32l-146.49 0z"/>
   <polygon class="fil1" points="4500.25,8605.57 4594.61,8605.57 4594.61,8628.83 4561.67,8628.83 4561.67,8764.19 4533.38,8764.19 4533.38,8628.83 4500.25,8628.83 "/>
   <polygon class="fil1" points="4660.83,8764.19 4689.1,8764.19 4689.1,8605.57 4660.83,8605.57 "/>
   <path class="fil1" d="M4793.94 8764.19l-28.3 0 0 -158.61 45.06 0 15.15 73.59c2.43,12.06 4.05,24.33 5.26,36.59l0.39 0c1.41,-15.64 2.43,-26.23 4.44,-36.59l15.17 -73.59 44.85 0 0 158.61 -28.29 0 0 -49.91c0,-31.52 0.61,-63.02 2.43,-94.54l-0.4 0 -30.31 144.45 -17.18 0 -29.7 -144.45 -1.02 0c1.82,31.52 2.44,63.02 2.44,94.54l0 49.91z"/>
   <polygon class="fil1" points="4971.24,8764.19 4971.24,8605.57 5050.85,8605.57 5050.85,8628.83 4999.53,8628.83 4999.53,8668.8 5046.82,8668.8 5046.82,8692.07 4999.53,8692.07 4999.53,8740.93 5050.85,8740.93 5050.85,8764.19 "/>
   <polygon class="fil1" points="5211.38,8605.57 5305.74,8605.57 5305.74,8628.83 5272.81,8628.83 5272.81,8764.19 5244.52,8764.19 5244.52,8628.83 5211.38,8628.83 "/>
   <path class="fil1" d="M5399.43 8709.62c0,13.11 1,34.48 20.41,34.48 20.2,0 20.4,-21.78 20.4,-37.02l0 -40.6c0,-12.7 0.61,-40.83 -20.4,-40.83 -22.23,0 -20.41,27.7 -20.41,39.97l0 44zm-29.1 -37.44c1.21,-40.4 4.24,-70.42 49.51,-70.42 45.25,0 48.29,30.02 49.5,70.42l0 22.63c0,42.31 -3.04,73.18 -49.5,73.18 -46.47,0 -49.51,-30.87 -49.51,-73.18l0 -22.63z"/>
   <path class="fil1" d="M5671.67 8672.61l22.23 0c9.3,-0.64 16.57,-6.99 16.57,-22.85 0,-17.76 -7.06,-20.74 -17.78,-20.94l-21.03 0 0 43.78zm0 23.27l0 68.3 -28.27 0 0 -158.61 53.54 0c24.46,0 43.04,8.87 43.04,38.06 0,17.35 -4.24,35.54 -23.23,38.29l0 0.42c16.77,2.32 21.81,13.54 21.81,28.76 0,6.55 -0.8,45.47 6.06,50.13l0 2.95 -31.11 0c-3.44,-10.15 -2.83,-29.61 -3.04,-40.19 -0.2,-9.73 0,-23.06 -9.69,-26 -7.67,-2.34 -15.96,-2.11 -24.05,-2.11l-5.06 0z"/>
   <polygon class="fil1" points="5815.47,8764.19 5815.47,8605.57 5895.08,8605.57 5895.08,8628.83 5843.76,8628.83 5843.76,8668.8 5891.04,8668.8 5891.04,8692.07 5843.76,8692.07 5843.76,8740.93 5895.08,8740.93 5895.08,8764.19 "/>
   <path class="fil1" d="M6000.09 8740.93c5.85,0 11.91,0.63 16.97,-1.69 7.67,-3.61 8.68,-13.96 8.68,-22 0,-17.12 -3.24,-24.32 -20.8,-24.32l-10.93 0 0 48.02 6.08 0zm-0.83 -71.29c6.88,0 15.77,0.42 20.22,-5.5 2.62,-4.02 3.02,-9.52 3.02,-17.12 0,-11.84 -2.43,-17.76 -15.36,-18.19l-13.13 0 0 40.81 5.25 0zm-33.54 94.54l0 -158.61 45.67 0c12.11,0 24.05,0.85 32.12,11.63 6.46,8.68 7.48,17.76 7.48,28.56 0,13.76 -2.84,27.28 -18.18,33.2l0 0.43c15.95,2.32 22.02,16.28 22.02,36.8 0,6.55 -0.41,13.12 -2.02,19.45 -6.06,20.09 -16.98,28.56 -37.19,28.56l-49.91 0z"/>
   <path class="fil1" d="M6195.59 8605.57l28.3 0 0 110.61c0,35.1 -10.93,51.82 -47.91,51.82 -37.37,0 -48.27,-16.72 -48.27,-51.82l0 -110.61 28.28 0 0 108.07c0,15.24 1.02,30.46 20.19,30.46 18.41,0 19.41,-15.22 19.41,-30.46l0 -108.07z"/>
   <polygon class="fil1" points="6300.4,8764.19 6328.69,8764.19 6328.69,8605.57 6300.4,8605.57 "/>
   <polygon class="fil1" points="6405.41,8764.19 6405.41,8605.57 6433.69,8605.57 6433.69,8740.93 6486.24,8740.93 6486.24,8764.19 "/>
   <path class="fil1" d="M6596.9 8740.93c25.24,0 26.87,-13.97 26.87,-59.87 0,-37.43 -3.63,-52.22 -20.62,-52.22l-18.57 0 0 112.1 12.32 0zm-40.62 23.26l0 -158.61 58.99 0c6.87,0 20.62,3.17 29.31,17.97 6.45,11.01 8.28,28.55 8.28,54.77 0,31.31 0,67.48 -23.24,81.63 -6.25,3.81 -13.94,4.24 -21.02,4.24l-52.33 0z"/>
   <path class="fil1" d="M6863.07 8647.24c3.03,7.82 5.47,15.85 6.66,24.33l0.43 0c2.01,-12.28 5.85,-21.16 9.28,-30.05l13.53 -35.94 30.92 0 -39.99 91.15 0 67.46 -28.3 0 0 -67.46 -39.39 -91.15 30.9 0 15.96 41.67z"/>
   <path class="fil1" d="M7016.57 8709.62c0,13.11 1.02,34.48 20.42,34.48 20.19,0 20.4,-21.78 20.4,-37.02l0 -40.6c0,-12.7 0.62,-40.83 -20.4,-40.83 -22.22,0 -20.42,27.7 -20.42,39.97l0 44zm-29.09 -37.44c1.2,-40.4 4.25,-70.42 49.5,-70.42 45.24,0 48.28,30.02 49.49,70.42l0 22.63c0,42.31 -3.02,73.18 -49.49,73.18 -46.48,0 -49.5,-30.87 -49.5,-73.18l0 -22.63z"/>
   <path class="fil1" d="M7229.26 8605.57l28.28 0 0 110.61c0,35.1 -10.91,51.82 -47.88,51.82 -37.39,0 -48.28,-16.72 -48.28,-51.82l0 -110.61 28.28 0 0 108.07c0,15.24 1,30.46 20.19,30.46 18.41,0 19.41,-15.22 19.41,-30.46l0 -108.07z"/>
   <path class="fil1" d="M7361.73 8672.61l22.23 0c9.29,-0.64 16.57,-6.99 16.57,-22.85 0,-17.76 -7.06,-20.74 -17.78,-20.94l-21.02 0 0 43.78zm0 23.27l0 68.3 -28.26 0 0 -158.61 53.52 0c24.46,0 43.03,8.87 43.03,38.06 0,17.35 -4.23,35.54 -23.22,38.29l0 0.42c16.77,2.32 21.83,13.54 21.83,28.76 0,6.55 -0.82,45.47 6.04,50.13l0 2.95 -31.11 0c-3.43,-10.15 -2.82,-29.61 -3.03,-40.19 -0.19,-9.73 0,-23.06 -9.69,-26 -7.68,-2.34 -15.96,-2.11 -24.05,-2.11l-5.06 0z"/>
   <polygon class="fil1" points="7605.92,8764.19 7605.92,8605.57 7634.19,8605.57 7634.19,8740.93 7686.72,8740.93 7686.72,8764.19 "/>
   <polygon class="fil1" points="7755.15,8764.19 7755.15,8605.57 7834.77,8605.57 7834.77,8628.83 7783.44,8628.83 7783.44,8668.8 7830.71,8668.8 7830.71,8692.07 7783.44,8692.07 7783.44,8740.93 7834.77,8740.93 7834.77,8764.19 "/>
   <path class="fil1" d="M7903.39 8672.19c1.22,-40.4 4.25,-70.42 49.51,-70.42 24.26,0.2 41,6.75 47.48,34.24 1.43,6.36 1.2,12.91 1.43,19.26l-28.3 0c-0.4,-16.06 -1.41,-28.75 -20.61,-29.61 -22.22,0 -20.4,27.7 -20.4,39.97l0 44c0,13.11 1.02,34.48 20.4,34.48 16.16,0 21.41,-17.98 20.8,-41.87l-19.58 0 0 -23.27 47.06 0 0 85.23 -21.19 0 0 -18.18 -0.43 0c-5.65,16.5 -16.37,21.14 -26.67,22 -46.48,0 -49.51,-30.87 -49.51,-73.18l0 -22.63z"/>
   <path class="fil1" d="M8108.81 8700.75l24.24 0 -7.68 -45.04c-1.41,-7.43 -2.01,-14.61 -2.82,-22.02 -0.21,-3.59 -0.6,-7.17 -1.02,-10.56l-0.4 0c-0.41,3.39 -0.81,6.97 -1.02,10.56 -0.8,7.42 -1.41,14.6 -2.82,22.02l-8.48 45.04zm-42.23 63.43l36.15 -158.61 38.2 0 34.35 158.61 -30.3 0 -7.47 -40.19 -33.14 0 -7.48 40.19 -30.3 0z"/>
   <path class="fil1" d="M8329.59 8707.72c-0.19,2.97 -0.39,6.13 -0.6,9.1 -1.41,28.98 -10.72,51.19 -42.24,51.19 -46.46,0 -49.49,-30.87 -49.49,-73.18l0 -22.63c1.22,-40.4 4.25,-70.42 49.49,-70.42 25.27,0.43 39.4,13.95 41.44,41.02 0.41,4.02 0.81,8.04 0.58,12.05l-27.87 0c-1.2,-10.15 -0.19,-29.19 -14.15,-29.19 -22.21,0 -20.4,27.7 -20.4,39.97l0 44c0,13.11 1.02,34.48 20.4,34.48 15.57,0 13.76,-26.23 14.36,-36.39l28.49 0z"/>
   <path class="fil1" d="M8436.82 8647.24c3.02,7.82 5.46,15.85 6.65,24.33l0.43 0c2.02,-12.28 5.83,-21.16 9.28,-30.05l13.54 -35.94 30.9 0 -39.99 91.15 0 67.46 -28.3 0 0 -67.46 -39.39 -91.15 30.9 0 15.98 41.67z"/>
   <polygon class="fil0" points="7859.94,8436.88 7859.94,8325.06 8484.33,8325.06 8484.33,8436.88 7859.94,8436.88 "/>
   <polygon class="fil0" points="4504.71,8436.88 4504.71,8325.06 5128.65,8325.06 5128.65,8436.88 4504.71,8436.88 "/>
   <path class="fil1" d="M5409.98 8337.79l23.67 0c19.26,0 32.2,-8.21 32.2,-36.94 0,-27.14 -10.74,-31.26 -35.67,-31.26l-20.2 0 0 68.19zm-44.2 133.87l0 -236.8 90.3 0c42.31,0 55.26,34.11 55.26,67.27 0,20.2 -5.36,42.92 -22.1,56.19 -13.9,11.06 -32.53,14.53 -49.58,14.2l-29.67 0 0 99.15 -44.2 0z"/>
   <path class="fil1" d="M5591.2 8334.96l34.72 0c14.53,-0.96 25.89,-10.43 25.89,-34.11 0,-26.53 -11.04,-30.94 -27.78,-31.26l-32.83 0 0 65.37zm0 34.72l0 101.98 -44.2 0 0 -236.8 83.68 0c38.2,0 67.25,13.27 67.25,56.83 0,25.89 -6.63,53.06 -36.3,57.15l0 0.63c26.2,3.48 34.09,20.21 34.09,42.94 0,9.79 -1.26,67.88 9.48,74.82l0 4.42 -48.63 0c-5.37,-15.15 -4.43,-44.2 -4.74,-59.98 -0.31,-14.52 0,-34.43 -15.15,-38.83 -12,-3.47 -24.95,-3.17 -37.58,-3.17l-7.89 0z"/>
   <path class="fil1" d="M5790.09 8390.21c0,19.57 1.58,51.46 31.89,51.46 31.57,0 31.88,-32.52 31.88,-55.24l0 -60.63c0,-18.95 0.95,-60.94 -31.88,-60.94 -34.73,0 -31.89,41.36 -31.89,59.68l0 65.68zm-45.45 -55.89c1.87,-60.32 6.62,-105.15 77.35,-105.15 70.71,0 75.44,44.83 77.34,105.15l0 33.76c0,63.16 -4.72,109.26 -77.34,109.26 -72.61,0 -77.35,-46.1 -77.35,-109.26l0 -33.76z"/>
   <path class="fil1" d="M5990.25 8337.79l23.67 0c19.27,0 32.2,-8.21 32.2,-36.94 0,-27.14 -10.73,-31.26 -35.67,-31.26l-20.21 0 0 68.19zm-44.2 133.87l0 -236.8 90.3 0c42.3,0 55.26,34.11 55.26,67.27 0,20.2 -5.39,42.92 -22.11,56.19 -13.9,11.06 -32.52,14.53 -49.56,14.2l-29.68 0 0 99.15 -44.2 0z"/>
   <polygon class="fil1" points="6126.64,8471.66 6126.64,8234.85 6251.05,8234.85 6251.05,8269.59 6170.83,8269.59 6170.83,8329.26 6244.74,8329.26 6244.74,8364 6170.83,8364 6170.83,8436.93 6251.05,8436.93 6251.05,8471.66 "/>
   <path class="fil1" d="M6335.63 8334.96l34.74 0c14.5,-0.96 25.89,-10.43 25.89,-34.11 0,-26.53 -11.06,-30.94 -27.79,-31.26l-32.84 0 0 65.37zm0 34.72l0 101.98 -44.19 0 0 -236.8 83.65 0c38.2,0 67.26,13.27 67.26,56.83 0,25.89 -6.63,53.06 -36.31,57.15l0 0.63c26.22,3.48 34.09,20.21 34.09,42.94 0,9.79 -1.26,67.88 9.49,74.82l0 4.42 -48.64 0c-5.37,-15.15 -4.41,-44.2 -4.73,-59.98 -0.3,-14.52 0,-34.43 -15.15,-38.83 -12,-3.47 -24.97,-3.17 -37.57,-3.17l-7.9 0z"/>
   <polygon class="fil1" points="6469.47,8234.85 6616.94,8234.85 6616.94,8269.59 6565.48,8269.59 6565.48,8471.66 6521.28,8471.66 6521.28,8269.59 6469.47,8269.59 "/>
   <polygon class="fil1" points="6650.07,8471.66 6694.3,8471.66 6694.3,8234.86 6650.07,8234.86 "/>
   <polygon class="fil1" points="6742.57,8471.66 6742.57,8234.85 6866.96,8234.85 6866.96,8269.59 6786.79,8269.59 6786.79,8329.26 6860.65,8329.26 6860.65,8364 6786.79,8364 6786.79,8436.93 6866.96,8436.93 6866.96,8471.66 "/>
   <path class="fil1" d="M6998.3 8306.84c0.3,-21.15 -1.57,-41.99 -25.9,-41.99 -14.81,0 -24.3,6 -24.3,22.11 0,17.99 11.39,24.94 25.25,33.79 14.54,9.15 41.37,26.83 53.67,38.83 15.18,14.84 19.92,29.05 19.92,49.56 0,44.83 -29.69,68.2 -72.94,68.2 -53.06,0 -71.98,-29.69 -71.98,-71.98l0 -17.36 44.19 0 0 13.89c-0.92,23.03 6,39.78 27.79,39.78 18.63,0 27.48,-9.79 27.48,-27.78 0,-13.89 -6.33,-23.37 -17.69,-31.26 -23.05,-18 -51.8,-30.95 -69.77,-54.62 -7.28,-10.74 -11.41,-23.69 -11.41,-36.31 0,-40.41 22.75,-62.51 69.48,-62.51 70.41,0 68.53,54.3 68.83,77.67l-42.63 0z"/>
   <polygon class="fil1" points="7195.17,8475.17 7195.17,8239.23 7239.21,8239.23 7239.21,8440.56 7321.01,8440.56 7321.01,8475.17 "/>
   <polygon class="fil1" points="7350.44,8475.17 7350.44,8239.23 7394.47,8239.23 7394.47,8440.56 7476.27,8440.56 7476.27,8475.17 "/>
   <path class="fil1" d="M7637.9 8392.47c-0.32,4.39 -0.62,9.12 -0.93,13.53 -2.21,43.09 -16.69,76.13 -65.75,76.13 -72.37,0 -77.07,-45.93 -77.07,-108.84l0 -33.68c1.89,-60.07 6.61,-104.74 77.07,-104.74 39.32,0.63 61.34,20.76 64.48,61.03 0.63,5.98 1.27,11.95 0.95,17.93l-43.42 0c-1.89,-15.1 -0.32,-43.42 -22.02,-43.42 -34.61,0 -31.78,41.22 -31.78,59.46l0 65.43c0,19.51 1.57,51.28 31.78,51.28 24.22,0 21.4,-39.01 22.33,-54.1l44.35 0z"/>
   <path class="fil1" d="M7076.18 8475.18l0 -46.53 46.53 0 0 46.53c0,17.22 -2.79,31.17 -9.31,41.41 -6.05,10.7 -15.35,19.08 -28.85,24.66l-11.17 -17.69c8.84,-3.72 14.89,-9.3 19.08,-16.75 4.19,-7.44 6.52,-17.68 6.98,-31.64l-23.26 0z"/>
   <g>
    <path class="fil2 str0" d="M7076.39 8475.86l0 -46.53 46.53 0 0 46.53c0,17.22 -2.79,31.17 -9.31,41.41 -6.04,10.71 -15.36,19.08 -28.84,24.67l-11.18 -17.69c8.85,-3.72 14.89,-9.3 19.08,-16.75 4.19,-7.44 6.52,-17.67 6.98,-31.63l-23.25 0zm87.72 -0.68"/>
   </g>
  </g>
 </g>
</svg>
